<svg width="69" height="16" viewBox="0 0 69 16" fill="none" xmlns="http://www.w3.org/2000/svg">
<path d="M10.9624 13.9512C9.80147 15.0912 8.38424 15.6612 6.7107 15.6612C5.03716 15.6612 3.61993 15.0912 2.459 13.9512C1.31316 12.7962 0.740234 11.3862 0.740234 9.72117C0.740234 8.05617 1.31316 6.65367 2.459 5.51367C3.61993 4.35867 5.03716 3.78117 6.7107 3.78117C8.38424 3.78117 9.80147 4.35867 10.9624 5.51367C12.1233 6.65367 12.7038 8.05617 12.7038 9.72117C12.7038 11.3862 12.1233 12.7962 10.9624 13.9512ZM4.517 11.9487C5.105 12.5337 5.83624 12.8262 6.7107 12.8262C7.58516 12.8262 8.31639 12.5337 8.90439 11.9487C9.49239 11.3637 9.78639 10.6212 9.78639 9.72117C9.78639 8.82117 9.49239 8.07867 8.90439 7.49367C8.31639 6.90867 7.58516 6.61617 6.7107 6.61617C5.83624 6.61617 5.105 6.90867 4.517 7.49367C3.94408 8.07867 3.65762 8.82117 3.65762 9.72117C3.65762 10.6212 3.94408 11.3637 4.517 11.9487ZM22.2192 4.09617H25.1366V15.3462H22.2192V14.0862C21.5106 15.1362 20.3874 15.6612 18.8495 15.6612C17.6132 15.6612 16.588 15.2487 15.7738 14.4237C14.9748 13.5987 14.5752 12.4587 14.5752 11.0037V4.09617H17.4926V10.6437C17.4926 11.3937 17.6962 11.9712 18.1032 12.3762C18.5103 12.7662 19.0531 12.9612 19.7315 12.9612C20.4854 12.9612 21.0885 12.7287 21.5408 12.2637C21.9931 11.7987 22.2192 11.1012 22.2192 10.1712V4.09617ZM34.0956 3.78117C35.3319 3.78117 36.3496 4.19367 37.1487 5.01867C37.9628 5.84367 38.3699 6.98367 38.3699 8.43867V15.3462H35.4525V8.79867C35.4525 8.04867 35.249 7.47867 34.8419 7.08867C34.4348 6.68367 33.8921 6.48117 33.2136 6.48117C32.4598 6.48117 31.8567 6.71367 31.4044 7.17867C30.9521 7.64367 30.7259 8.34117 30.7259 9.27117V15.3462H27.8085V4.09617H30.7259V5.35617C31.4345 4.30617 32.5578 3.78117 34.0956 3.78117ZM47.3291 6.88617H44.7736V11.5662C44.7736 11.9562 44.8716 12.2412 45.0676 12.4212C45.2636 12.6012 45.55 12.7062 45.9269 12.7362C46.3039 12.7512 46.7712 12.7437 47.3291 12.7137V15.3462C45.3239 15.5712 43.9066 15.3837 43.0774 14.7837C42.2632 14.1837 41.8562 13.1112 41.8562 11.5662V6.88617H39.8886V4.09617H41.8562V1.82367L44.7736 0.946167V4.09617H47.3291V6.88617ZM51.4979 10.9137C51.8899 12.3237 52.9528 13.0287 54.6866 13.0287C55.8023 13.0287 56.6466 12.6537 57.2196 11.9037L59.5716 13.2537C58.4559 14.8587 56.8125 15.6612 54.6414 15.6612C52.7719 15.6612 51.2717 15.0987 50.1409 13.9737C49.0102 12.8487 48.4448 11.4312 48.4448 9.72117C48.4448 8.02617 49.0026 6.61617 50.1183 5.49117C51.234 4.35117 52.6663 3.78117 54.4152 3.78117C56.0737 3.78117 57.4382 4.35117 58.5086 5.49117C59.5942 6.63117 60.1369 8.04117 60.1369 9.72117C60.1369 10.0962 60.0992 10.4937 60.0239 10.9137H51.4979ZM51.4526 8.66367H57.2196C57.0537 7.89867 56.7069 7.32867 56.1792 6.95367C55.6666 6.57867 55.0786 6.39117 54.4152 6.39117C53.6312 6.39117 52.9829 6.59367 52.4703 6.99867C51.9577 7.38867 51.6185 7.94367 51.4526 8.66367ZM65.0909 6.03117C65.3623 5.31117 65.807 4.77117 66.4252 4.41117C67.0584 4.05117 67.7595 3.87117 68.5284 3.87117V7.11117C67.6389 7.00617 66.8398 7.18617 66.1312 7.65117C65.4376 8.11617 65.0909 8.88867 65.0909 9.96867V15.3462H62.1735V4.09617H65.0909V6.03117Z" fill="black" fill-opacity="0.3"/>
</svg>
